<?xml version="1.0" standalone="no"?>
 <!DOCTYPE svg PUBLIC "-//W3C//DTD SVG 1.1//EN" 
 "http://www.w3.org/Graphics/SVG/1.1/DTD/svg11.dtd"> 
<svg
  xmlns:svg="http://www.w3.org/2000/svg"
  xmlns="http://www.w3.org/2000/svg"
  xmlns:xlink="http://www.w3.org/1999/xlink"
  version="1.1"
  width="297.0022mm" height="210.0072mm" viewBox="0.0000 0.0000 297.0022 210.0072">
<title>SVG Image created as spectrogram-left-bottom-F_Cu.svg date 2026/05/13 19:30:40 </title>
  <desc>Image generated by PCBNEW </desc>
<g style="fill:#000000; fill-opacity:1.0000;stroke:#000000; stroke-opacity:1.0000;
stroke-linecap:round; stroke-linejoin:round;"
 transform="translate(0 0) scale(1 1)">
<path style="fill:#000000; fill-opacity:1.0000; stroke:none;fill-rule:evenodd;"
d="M 166.4092,17.4608
166.4099,17.4608
166.5657,17.4622
166.5685,17.4622
166.7467,17.4678
166.7508,17.4680
166.9474,17.4807
166.9527,17.4811
167.1635,17.5037
167.1699,17.5046
167.3903,17.5398
167.3979,17.5413
167.6233,17.5918
167.6322,17.5941
167.8580,17.6625
167.8682,17.6661
168.0904,17.7548
168.1012,17.7597
168.2023,17.8117
168.3179,17.8712
168.3279,17.8769
168.5379,18.0103
168.5467,18.0165
168.7476,18.1699
168.7556,18.1765
168.9447,18.3474
168.9521,18.3546
169.1267,18.5406
169.1335,18.5484
169.2912,18.7468
169.2975,18.7554
169.3015,18.7614
169.4358,18.9636
169.4417,18.9732
169.5044,19.0889
169.5584,19.1885
169.5636,19.1993
169.6575,19.4203
169.6614,19.4308
169.7343,19.6560
169.7369,19.6652
169.7914,19.8910
169.7930,19.8990
169.8316,20.1209
169.8326,20.1277
169.8579,20.3411
169.8584,20.3467
169.8732,20.5470
169.8734,20.5514
169.8804,20.7342
169.8805,20.7374
169.8826,20.8986
169.8826,20.9001
169.8828,21.0368
169.8828,124.8740
169.8828,125.0139
169.8827,125.0147
169.8817,125.1664
169.8817,125.1690
169.8770,125.3439
169.8768,125.3479
169.8654,125.5419
169.8650,125.5470
169.8442,125.7558
169.8434,125.7621
169.8103,125.9812
169.8089,125.9887
169.7610,126.2136
169.7588,126.2223
169.6934,126.4483
169.6900,126.4583
169.6747,126.4983
169.6047,126.6812
169.5999,126.6921
169.4921,126.9097
169.4864,126.9199
169.3563,127.1310
169.3502,127.1401
169.1998,127.3426
169.1932,127.3507
169.0249,127.5418
169.0178,127.5493
168.8340,127.7264
168.8263,127.7332
168.7252,127.8157
168.6297,127.8937
168.6212,127.9001
168.4144,128.0416
168.4049,128.0475
168.1906,128.1677
168.1800,128.1730
167.9598,128.2705
167.9491,128.2747
167.7244,128.3506
167.7150,128.3534
167.4889,128.4106
167.4808,128.4124
167.2580,128.4533
167.2510,128.4543
167.0360,128.4815
167.0302,128.4821
166.8276,128.4983
166.8230,128.4986
166.6371,128.5066
166.6337,128.5067
166.4688,128.5094
166.4670,128.5094
166.3274,128.5097
166.3270,128.5097
25.7882,128.5097
25.6804,128.5097
25.6798,128.5097
25.6072,128.5094
25.6049,128.5093
25.5219,128.5074
25.5181,128.5073
25.4264,128.5024
25.4214,128.5020
25.3230,128.4929
25.3169,128.4922
25.2140,128.4776
25.2067,128.4763
25.1592,128.4667
25.1017,128.4550
25.0932,128.4530
25.0567,128.4429
24.9884,128.4240
24.9786,128.4209
24.8761,128.3833
24.8653,128.3787
24.8570,128.3747
24.7655,128.3311
24.7552,128.3256
24.6579,128.2675
24.6487,128.2614
24.5545,128.1934
24.5462,128.1869
24.4568,128.1101
24.4493,128.1031
24.3661,128.0189
24.3591,128.0113
24.2956,127.9355
24.2835,127.9211
24.2771,127.9128
24.2104,127.8180
24.2044,127.8087
24.1909,127.7853
24.1478,127.7110
24.1423,127.7005
24.0962,127.6004
24.0918,127.5897
24.0555,127.4868
24.0525,127.4772
24.0247,127.3722
24.0228,127.3639
24.0025,127.2590
24.0013,127.2519
23.9876,127.1495
23.9869,127.1436
23.9785,127.0459
23.9781,127.0411
23.9780,127.0390
23.9738,126.9505
23.9736,126.9469
23.9734,126.9370
23.9720,126.8652
23.9720,126.8632
23.9718,126.7920
23.9718,126.7011
23.9718,126.5694
23.9718,126.3033
23.9718,125.8289
23.9718,125.0720
23.9718,124.4839
26.5005,124.4839
26.5005,124.6965
26.5338,124.9065
26.5995,125.1086
26.6960,125.2980
26.8209,125.4700
26.8209,125.4700
26.8209,125.4700
26.9712,125.6203
26.9712,125.6203
26.9712,125.6203
27.1432,125.7453
27.3326,125.8418
27.5348,125.9075
27.7447,125.9407
27.7447,125.9407
27.9573,125.9407
27.9573,125.9407
28.1673,125.9075
28.3694,125.8418
28.5588,125.7453
28.7308,125.6203
28.8811,125.4700
29.0061,125.2980
29.1026,125.1086
29.1683,124.9065
29.2015,124.6965
29.2015,124.5039
95.6005,124.5039
95.6005,124.7165
95.6338,124.9265
95.6995,125.1286
95.7960,125.3180
95.7960,125.3180
95.8162,125.3459
95.9209,125.4900
95.9209,125.4900
95.9209,125.4900
96.0712,125.6403
96.0712,125.6403
96.0712,125.6403
96.2432,125.7653
96.4326,125.8618
96.6348,125.9275
96.8447,125.9607
96.8447,125.9607
97.0573,125.9607
97.0573,125.9607
97.2673,125.9275
97.4694,125.8618
97.6588,125.7653
97.8308,125.6403
97.9811,125.4900
98.1061,125.3180
98.2026,125.1286
98.2683,124.9265
98.3015,124.7165
98.3015,124.5039
98.2683,124.2940
98.2026,124.0918
98.1924,124.0718
98.1182,123.9262
98.1061,123.9024
98.0854,123.8739
98.0854,123.8739
164.0505,123.8739
164.0505,124.0865
164.0838,124.2965
164.1495,124.4986
164.2460,124.6880
164.2460,124.6880
164.2521,124.6965
164.3709,124.8600
164.3709,124.8600
164.3709,124.8600
164.5212,125.0103
164.5212,125.0103
164.5212,125.0103
164.6932,125.1353
164.8826,125.2318
165.0848,125.2975
165.2947,125.3307
165.2947,125.3307
165.5073,125.3307
165.5073,125.3307
165.7173,125.2975
165.9194,125.2318
166.1088,125.1353
166.2808,125.0103
166.4311,124.8600
166.5561,124.6880
166.6526,124.4986
166.7183,124.2965
166.7515,124.0865
166.7515,123.8739
166.7183,123.6640
166.6526,123.4618
166.5561,123.2724
166.4311,123.1004
166.4311,123.1004
166.4311,123.1004
166.2808,122.9501
166.2808,122.9501
166.2808,122.9501
166.1088,122.8252
165.9194,122.7287
165.7173,122.6630
165.5073,122.6297
165.2947,122.6297
165.0848,122.6630
165.0848,122.6630
165.0848,122.6630
164.8826,122.7287
164.8826,122.7287
164.6932,122.8252
164.5212,122.9501
164.5212,122.9501
164.3709,123.1004
164.3709,123.1004
164.2460,123.2724
164.1495,123.4618
164.1495,123.4618
164.1110,123.5801
164.0838,123.6640
164.0505,123.8739
98.0854,123.8739
97.9811,123.7304
97.9811,123.7304
97.9811,123.7304
97.8308,123.5801
97.8308,123.5801
97.8308,123.5801
97.6588,123.4552
97.4694,123.3587
97.2673,123.2930
97.0573,123.2597
96.8447,123.2597
96.6348,123.2930
96.6348,123.2930
96.6348,123.2930
96.4326,123.3587
96.4326,123.3587
96.2432,123.4552
96.0712,123.5801
96.0712,123.5801
95.9209,123.7304
95.9209,123.7304
95.7960,123.9024
95.6995,124.0918
95.6995,124.0918
95.6403,124.2740
95.6338,124.2940
95.6005,124.5039
29.2015,124.5039
29.2015,124.4839
29.1683,124.2740
29.1026,124.0718
29.0061,123.8824
28.8811,123.7104
28.8811,123.7104
28.8811,123.7104
28.7308,123.5601
28.7308,123.5601
28.7308,123.5601
28.5588,123.4352
28.3694,123.3387
28.1673,123.2730
27.9573,123.2397
27.7447,123.2397
27.5348,123.2730
27.5348,123.2730
27.5348,123.2730
27.3326,123.3387
27.3326,123.3387
27.1432,123.4352
26.9712,123.5601
26.9712,123.5601
26.8209,123.7104
26.8209,123.7104
26.6960,123.8824
26.6737,123.9262
26.5995,124.0718
26.5338,124.2740
26.5005,124.4839
23.9718,124.4839
23.9718,123.9589
23.9718,122.4155
23.9718,120.3678
23.9718,117.7530
23.9718,114.6338
23.9718,111.1532
23.9718,107.4552
23.9718,103.6840
23.9718,99.9838
23.9718,96.4986
23.9718,93.3727
23.9718,90.7490
23.9718,88.6929
23.9718,87.1422
23.9718,86.0229
23.9718,85.2611
23.9718,84.7827
23.9718,84.5140
23.9718,84.3808
23.9718,84.3294
23.9720,84.2584
23.9720,84.2565
23.9736,84.1749
23.9737,84.1713
23.9749,84.1465
23.9780,84.0808
23.9783,84.0761
23.9867,83.9785
23.9874,83.9726
23.9923,83.9361
24.0011,83.8703
24.0022,83.8632
24.0224,83.7583
24.0243,83.7500
24.0350,83.7095
24.0520,83.6450
24.0550,83.6354
24.0688,83.5962
24.0911,83.5325
24.0955,83.5218
24.1414,83.4216
24.1469,83.4111
24.2034,83.3134
24.2093,83.3040
24.2759,83.2093
24.2823,83.2009
24.3578,83.1106
24.3647,83.1030
24.4478,83.0187
24.4553,83.0117
24.5447,82.9348
24.5529,82.9283
24.6471,82.8601
24.6562,82.8541
24.7536,82.7957
24.7638,82.7902
24.8635,82.7425
24.8744,82.7379
24.9768,82.7002
24.9866,82.6970
25.0914,82.6679
25.0999,82.6658
25.2050,82.6444
25.2123,82.6432
25.3152,82.6284
25.3213,82.6277
25.4199,82.6185
25.4248,82.6181
25.5167,82.6132
25.5204,82.6131
25.6037,82.6111
25.6059,82.6111
25.6785,82.6107
25.6789,82.6107
25.6795,82.6107
25.7602,82.6107
25.7757,82.6107
25.8367,82.6107
25.9146,82.6107
26.0206,82.6107
26.1661,82.6107
26.3625,82.6107
26.6211,82.6107
26.9525,82.6107
27.3527,82.6107
27.8033,82.6107
28.2854,82.6107
28.7801,82.6107
29.2683,82.6107
29.7314,82.6107
30.1502,82.6107
30.5059,82.6107
30.7874,82.6107
31.0030,82.6107
31.1639,82.6107
31.2816,82.6107
31.3674,82.6107
31.4327,82.6107
31.4888,82.6107
31.5471,82.6107
31.5472,82.6108
31.5669,82.6107
31.5870,82.6107
31.5989,82.6107
31.5995,82.6107
31.6062,82.6107
31.6105,82.6110
31.6192,82.6109
31.6192,82.6109
31.6385,82.6106
31.6578,82.6106
31.6585,82.6103
31.6929,82.6097
31.7006,82.6103
31.7195,82.6095
31.7251,82.6092
31.7438,82.6089
31.7451,82.6084
31.7923,82.6063
31.8025,82.6067
31.8065,82.6064
31.8066,82.6064
31.8247,82.6050
31.8428,82.6042
31.8445,82.6034
31.9022,82.5988
31.9146,82.5988
31.9171,82.5985
31.9171,82.5985
31.9318,82.5966
31.9375,82.5960
31.9523,82.5948
31.9523,82.5948
31.9548,82.5946
31.9669,82.5922
32.0331,82.5839
32.0359,82.5845
32.0528,82.5814
32.0699,82.5793
32.0699,82.5793
32.0711,82.5791
32.0851,82.5755
32.1574,82.5623
32.1608,82.5628
32.1770,82.5587
32.1934,82.5557
32.1934,82.5557
32.1936,82.5556
32.2092,82.5506
32.2857,82.5314
32.2897,82.5316
32.3049,82.5265
32.3205,82.5226
32.3205,82.5226
32.3234,82.5212
32.3372,82.5157
32.4011,82.4942
32.4011,82.4942
32.4156,82.4893
32.4203,82.4892
32.4344,82.4829
32.4491,82.4780
32.4491,82.4780
32.4547,82.4747
32.4666,82.4687
32.5445,82.4344
32.5494,82.4338
32.5627,82.4264
32.5766,82.4202
32.5766,82.4202
32.5829,82.4158
32.5938,82.4090
32.6697,82.3666
32.6742,82.3656
32.6870,82.3569
32.7005,82.3493
32.7005,82.3493
32.7052,82.3454
32.7159,82.3371
32.7772,82.2953
32.7772,82.2953
32.7894,82.2870
32.7936,82.2858
32.8058,82.2758
32.8188,82.2670
32.8188,82.2669
32.8222,82.2635
32.8326,82.2540
32.8913,82.2062
32.9026,82.1970
32.9066,82.1954
32.9180,82.1844
32.9303,82.1744
32.9303,82.1744
32.9330,82.1712
32.9428,82.1606
33.0083,82.0976
33.0121,82.0958
33.0226,82.0839
33.0341,82.0729
33.0341,82.0729
33.0364,82.0695
33.0453,82.0581
33.1054,81.9901
33.1091,81.9879
33.1186,81.9752
33.1291,81.9634
33.1291,81.9633
33.1313,81.9595
33.1392,81.9476
33.1929,81.8754
33.1966,81.8728
33.2048,81.8595
33.2141,81.8469
33.2141,81.8469
33.2164,81.8421
33.2231,81.8299
33.2696,81.7546
33.2732,81.7515
33.2801,81.7377
33.2881,81.7246
33.2881,81.7246
33.2906,81.7181
33.2958,81.7061
33.3342,81.6289
33.3376,81.6253
33.3430,81.6111
33.3498,81.5975
33.3498,81.5974
33.3519,81.5900
33.3558,81.5778
33.3856,81.5004
33.3883,81.4970
33.3927,81.4818
33.3984,81.4671
33.3984,81.4671
33.3992,81.4624
33.4024,81.4487
33.4247,81.3719
33.4268,81.3689
33.4302,81.3528
33.4348,81.3371
33.4348,81.3371
33.4349,81.3355
33.4373,81.3200
33.4531,81.2460
33.4548,81.2433
33.4573,81.2266
33.4609,81.2100
33.4609,81.2100
33.4610,81.2095
33.4623,81.1939
33.4628,81.1904
33.4727,81.1249
33.4740,81.1226
33.4757,81.1052
33.4783,81.0879
33.4783,81.0879
33.4786,81.0861
33.4790,81.0727
33.4852,81.0108
33.4862,81.0089
33.4872,80.9910
33.4890,80.9731
33.4890,80.9731
33.4893,80.9698
33.4891,80.9586
33.4922,80.9060
33.4929,80.9045
33.4934,80.8861
33.4945,80.8677
33.4945,80.8677
33.4948,80.8628
33.4943,80.8538
33.4951,80.8251
33.4958,80.8190
33.4960,80.7942
33.4960,80.7916
33.4961,80.7894
33.4965,80.7739
33.4965,80.7739
33.4967,80.7668
33.4962,80.7606
33.4963,80.7462
33.4965,80.7441
33.4965,80.7335
33.4965,80.7335
33.4965,80.7140
33.4967,80.6942
33.4967,80.6942
33.4967,80.6837
33.4965,80.6815
33.4965,80.6520
33.4965,80.6520
33.4965,80.6308
33.4965,80.6308
33.4965,80.6188
33.4965,80.6188
33.4965,72.8839
164.6205,72.8839
164.6205,73.0965
164.6538,73.3065
164.7195,73.5086
164.8160,73.6980
164.9409,73.8700
164.9409,73.8700
164.9409,73.8700
165.0912,74.0203
165.0912,74.0203
165.0912,74.0203
165.2632,74.1453
165.4526,74.2418
165.6548,74.3075
165.8647,74.3407
165.8647,74.3407
166.0773,74.3407
166.0773,74.3407
166.2873,74.3075
166.4894,74.2418
166.6788,74.1453
166.8508,74.0203
167.0011,73.8700
167.1261,73.6980
167.2226,73.5086
167.2883,73.3065
167.3215,73.0965
167.3215,72.8839
167.2883,72.6740
167.2226,72.4718
167.1261,72.2824
167.0011,72.1104
167.0011,72.1104
167.0011,72.1104
166.8508,71.9601
166.8508,71.9601
166.8508,71.9601
166.6788,71.8352
166.4894,71.7387
166.2873,71.6730
166.0773,71.6397
165.8647,71.6397
165.6548,71.6730
165.6548,71.6730
165.6548,71.6730
165.4526,71.7387
165.4526,71.7387
165.2632,71.8352
165.0912,71.9601
165.0912,71.9601
164.9409,72.1104
164.9409,72.1104
164.8160,72.2824
164.8160,72.2824
164.7195,72.4718
164.6538,72.6740
164.6205,72.8839
33.4965,72.8839
33.4965,65.3204
33.4965,65.3013
33.4965,65.2573
33.4971,65.1823
33.4971,65.1797
33.4977,65.1586
33.4994,65.0951
33.4996,65.0912
33.5051,64.9980
33.5055,64.9929
33.5087,64.9616
33.5155,64.8936
33.5163,64.8873
33.5320,64.7838
33.5334,64.7764
33.5559,64.6712
33.5581,64.6625
33.5767,64.5985
33.5885,64.5579
33.5919,64.5479
33.6311,64.4459
33.6359,64.4351
33.6853,64.3357
33.6909,64.3256
33.7508,64.2287
33.7569,64.2197
33.8265,64.1262
33.8331,64.1181
33.9113,64.0296
33.9184,64.0222
34.0037,63.9402
34.0114,63.9334
34.1025,63.8592
34.1110,63.8529
34.2064,63.7878
34.2159,63.7819
34.3140,63.7271
34.3246,63.7217
34.4252,63.6774
34.4358,63.6733
34.5392,63.6385
34.5485,63.6358
34.6537,63.6093
34.6618,63.6075
34.7664,63.5884
34.7733,63.5874
34.8750,63.5746
34.8808,63.5740
34.9774,63.5663
34.9819,63.5661
35.0711,63.5622
35.0745,63.5622
35.1545,63.5609
35.1562,63.5609
35.2248,63.5607
35.2252,63.5607
35.2609,63.5607
35.3048,63.5607
35.3400,63.5607
35.3696,63.5607
35.3968,63.5607
35.4248,63.5607
35.4569,63.5607
35.4961,63.5607
35.5452,63.5607
35.6030,63.5607
35.6669,63.5607
35.7343,63.5607
35.8026,63.5607
35.8691,63.5607
35.9313,63.5607
35.9865,63.5607
36.0323,63.5607
36.0689,63.5607
36.0992,63.5607
36.1266,63.5607
36.1543,63.5607
36.1853,63.5607
36.2230,63.5607
36.2705,63.5607
36.3312,63.5607
36.3315,63.5608
36.3512,63.5607
36.3710,63.5607
36.3822,63.5607
36.3837,63.5606
36.3956,63.5605
36.4012,63.5610
36.4088,63.5608
36.4088,63.5608
36.4267,63.5604
36.4289,63.5604
36.4469,63.5603
36.4469,63.5603
36.4545,63.5602
36.4601,63.5596
36.4867,63.5590
36.4953,63.5595
36.5005,63.5592
36.5005,63.5592
36.5171,63.5583
36.5208,63.5582
36.5374,63.5578
36.5374,63.5578
36.5427,63.5577
36.5512,63.5565
36.6023,63.5537
36.6043,63.5544
36.6222,63.5527
36.6402,63.5517
36.6402,63.5517
36.6437,63.5515
36.6544,63.5497
36.7153,63.5440
36.7178,63.5446
36.7351,63.5421
36.7526,63.5405
36.7526,63.5405
36.7546,63.5403
36.7674,63.5375
36.8358,63.5277
36.8388,63.5283
36.8555,63.5249
36.8724,63.5225
36.8724,63.5225
36.8731,63.5224
36.8878,63.5183
36.9617,63.5033
36.9653,63.5037
36.9812,63.4993
36.9973,63.4960
36.9973,63.4960
36.9983,63.4956
37.0134,63.4903
37.0768,63.4727
37.0907,63.4689
37.0950,63.4690
37.1098,63.4636
37.1148,63.4622
37.1148,63.4622
37.1251,63.4593
37.1251,63.4593
37.1289,63.4574
37.1421,63.4517
37.2206,63.4227
37.2255,63.4225
37.2393,63.4159
37.2536,63.4106
37.2536,63.4106
37.2600,63.4067
37.2713,63.4005
37.3486,63.3635
37.3533,63.3628
37.3665,63.3549
37.3803,63.3483
37.3803,63.3483
37.3861,63.3440
37.3969,63.3367
37.4721,63.2917
37.4765,63.2906
37.4891,63.2815
37.5025,63.2735
37.5025,63.2735
37.5025,63.2735
37.5066,63.2697
37.5173,63.2611
37.5898,63.2086
37.5939,63.2072
37.6058,63.1969
37.6186,63.1877
37.6186,63.1877
37.6218,63.1843
37.6320,63.1744
37.7006,63.1154
37.7045,63.1137
37.7157,63.1024
37.7277,63.0921
37.7277,63.0921
37.7303,63.0888
37.7398,63.0780
37.7781,63.0391
37.8036,63.0132
37.8074,63.0112
37.8176,62.9991
37.8287,62.9878
37.8287,62.9878
37.8310,62.9843
37.8396,62.9727
37.8977,62.9032
37.9014,62.9009
37.9105,62.8880
37.9206,62.8759
37.9206,62.8759
37.9206,62.8759
37.9229,62.8717
37.9303,62.8597
37.9396,62.8466
37.9818,62.7864
37.9854,62.7836
37.9932,62.7701
38.0022,62.7574
38.0022,62.7574
38.0045,62.7520
38.0107,62.7399
38.0547,62.6638
38.0583,62.6605
38.0646,62.6466
38.0723,62.6334
38.0723,62.6334
38.0747,62.6262
38.0795,62.6143
38.1150,62.5369
38.1182,62.5333
38.1233,62.5188
38.1297,62.5049
38.1297,62.5049
38.1313,62.4980
38.1350,62.4854
38.1574,62.4216
38.1622,62.4081
38.1647,62.4048
38.1688,62.3893
38.1741,62.3743
38.1741,62.3743
38.1746,62.3707
38.1775,62.3563
38.1809,62.3433
38.1976,62.2802
38.1995,62.2773
38.2027,62.2610
38.2069,62.2450
38.2069,62.2450
38.2069,62.2443
38.2090,62.2283
38.2229,62.1556
38.2244,62.1531
38.2267,62.1361
38.2299,62.1193
38.2299,62.1193
38.2301,62.1183
38.2311,62.1035
38.2400,62.0366
38.2411,62.0344
38.2427,62.0168
38.2450,61.9994
38.2450,61.9994
38.2453,61.9971
38.2454,61.9844
38.2505,61.9253
38.2514,61.9235
38.2522,61.9054
38.2538,61.8874
38.2538,61.8874
38.2541,61.8836
38.2538,61.8731
38.2561,61.8240
38.2567,61.8227
38.2571,61.8041
38.2579,61.7855
38.2579,61.7855
38.2582,61.7799
38.2577,61.7718
38.2582,61.7475
38.2587,61.7426
38.2587,61.7344
38.2588,61.7162
38.2588,61.7144
38.2592,61.6961
38.2592,61.6961
38.2593,61.6880
38.2589,61.6830
38.2589,61.6739
38.2590,61.6729
38.2590,61.6414
38.2590,61.6410
38.2591,61.6101
38.2590,61.6091
38.2590,46.2480
38.2591,46.2479
38.2590,46.2280
38.2590,46.2082
38.2590,46.1966
38.2589,46.1956
38.2589,46.1862
38.2593,46.1811
38.2592,46.1731
38.2592,46.1731
38.2588,46.1539
38.2587,46.1347
38.2584,46.1339
38.2577,46.0971
38.2582,46.0890
38.2579,46.0834
38.2579,46.0834
38.2571,46.0666
38.2570,46.0631
38.2566,46.0463
38.2566,46.0463
38.2565,46.0407
38.2555,46.0326
38.2531,45.9833
38.2537,45.9814
38.2521,45.9634
38.2512,45.9453
38.2512,45.9453
38.2511,45.9415
38.2493,45.9311
38.2453,45.8843
38.2442,45.8717
38.2448,45.8693
38.2425,45.8518
38.2409,45.8343
38.2409,45.8343
38.2407,45.8320
38.2381,45.8196
38.2308,45.7650
38.2308,45.7650
38.2290,45.7522
38.2296,45.7493
38.2264,45.7324
38.2259,45.7289
38.2259,45.7289
38.2240,45.7146
38.2201,45.7002
38.2060,45.6270
38.2065,45.6235
38.2022,45.6075
38.1991,45.5912
38.1991,45.5912
38.1988,45.5905
38.1936,45.5752
38.1839,45.5384
38.1733,45.4983
38.1735,45.4942
38.1682,45.4791
38.1641,45.4637
38.1641,45.4637
38.1625,45.4604
38.1568,45.4469
38.1291,45.3683
38.1289,45.3636
38.1225,45.3496
38.1173,45.3351
38.1173,45.3351
38.1137,45.3291
38.1076,45.3175
38.0719,45.2399
38.0713,45.2351
38.0636,45.2219
38.0572,45.2080
38.0572,45.2080
38.0572,45.2080
38.0528,45.2019
38.0458,45.1911
38.0020,45.1156
38.0010,45.1112
37.9920,45.0984
37.9842,45.0850
37.9804,45.0806
37.9719,45.0699
37.9205,44.9969
37.9192,44.9928
37.9091,44.9807
37.9061,44.9764
37.9000,44.9678
37.8966,44.9646
37.8869,44.9543
37.8381,44.8960
37.8381,44.8960
37.8288,44.8849
37.8272,44.8810
37.8161,44.8697
37.8128,44.8658
37.8127,44.8658
37.8059,44.8576
37.8026,44.8549
37.7919,44.8453
37.7382,44.7909
37.7280,44.7806
37.7261,44.7768
37.7140,44.7665
37.7029,44.7552
37.7029,44.7552
37.7029,44.7552
37.6994,44.7529
37.6880,44.7441
37.6302,44.6946
37.6191,44.6851
37.6169,44.6814
37.6041,44.6721
37.5921,44.6619
37.5921,44.6618
37.5921,44.6618
37.5880,44.6596
37.5761,44.6519
37.5155,44.6081
37.5033,44.5994
37.5006,44.5957
37.4872,44.5877
37.4826,44.5844
37.4746,44.5786
37.4694,44.5762
37.4573,44.5699
37.4513,44.5663
37.3816,44.5246
37.3783,44.5211
37.3645,44.5145
37.3586,44.5109
37.3514,44.5066
37.3445,44.5042
37.3325,44.4992
37.3260,44.4961
37.3011,44.4842
37.2693,44.4691
37.2693,44.4691
37.2552,44.4623
37.2516,44.4590
37.2373,44.4537
37.2319,44.4512
37.2235,44.4472
37.2162,44.4453
37.2039,44.4415
37.1754,44.4311
37.1265,44.4131
37.1231,44.4105
37.1078,44.4063
37.1030,44.4045
37.0929,44.4008
37.0888,44.4002
37.0747,44.3971
37.0114,44.3796
37.0114,44.3796
36.9983,44.3760
36.9953,44.3740
36.9792,44.3707
36.9749,44.3695
36.9633,44.3663
36.9622,44.3662
36.9464,44.3640
36.8858,44.3518
36.8731,44.3492
36.8704,44.3476
36.8536,44.3452
36.8499,44.3445
36.8361,44.3417
36.8210,44.3406
36.7655,44.3327
36.7530,44.3309
36.7507,44.3297
36.7333,44.3281
36.7302,44.3277
36.7302,44.3277
36.7138,44.3253
36.7008,44.3251
36.6527,44.3206
36.6527,44.3206
36.6403,44.3195
36.6385,44.3186
36.6205,44.3177
36.6180,44.3174
36.6180,44.3174
36.5990,44.3157
36.5881,44.3159
36.5497,44.3139
36.5497,44.3139
36.5373,44.3132
36.5359,44.3126
36.5175,44.3122
36.5156,44.3121
36.5156,44.3121
36.4937,44.3109
36.4852,44.3114
36.4588,44.3108
36.4532,44.3102
36.4277,44.3101
36.4277,44.3101
36.4265,44.3101
36.4075,44.3096
36.4066,44.3100
36.3943,44.3099
36.3943,44.3099
36.3943,44.3099
36.3937,44.3099
36.3824,44.3099
36.3809,44.3097
36.3504,44.3097
36.3500,44.3097
36.3304,44.3096
36.3302,44.3097
36.3087,44.3097
36.2532,44.3097
36.1920,44.3097
36.1138,44.3097
36.0073,44.3097
35.8610,44.3097
35.6637,44.3097
35.4041,44.3097
35.0714,44.3097
34.6702,44.3097
34.2189,44.3097
33.7365,44.3097
33.2417,44.3097
32.7537,44.3097
32.2912,44.3097
31.8731,44.3097
31.5185,44.3097
31.2381,44.3097
31.0235,44.3097
30.8633,44.3097
30.7461,44.3097
30.6607,44.3097
30.5957,44.3097
30.5396,44.3097
30.4613,44.3097
30.4609,44.3097
30.3923,44.3096
30.3905,44.3096
30.3104,44.3083
30.3070,44.3082
30.2177,44.3043
30.2130,44.3040
30.1164,44.2963
30.1106,44.2957
30.0088,44.2828
30.0019,44.2818
29.8973,44.2626
29.8891,44.2608
29.7840,44.2342
29.7746,44.2314
29.6713,44.1965
29.6606,44.1923
29.5602,44.1479
29.5495,44.1425
29.4514,44.0875
29.4419,44.0816
29.4028,44.0548
29.3467,44.0164
29.3381,44.0100
29.2858,43.9673
29.2472,43.9358
29.2394,43.9289
29.1542,43.8468
29.1471,43.8393
29.0691,43.7508
29.0625,43.7427
28.9931,43.6491
28.9869,43.6401
28.9272,43.5431
28.9216,43.5330
28.8724,43.4337
28.8676,43.4228
28.8285,43.3207
28.8252,43.3107
28.7949,43.2062
28.7927,43.1975
28.7703,43.0923
28.7689,43.0849
28.7592,43.0207
28.7533,42.9815
28.7525,42.9752
28.7426,42.8759
28.7422,42.8708
28.7368,42.7779
28.7366,42.7740
28.7343,42.6894
28.7343,42.6868
28.7342,42.6716
28.7338,42.6122
28.7338,42.5512
28.7338,42.4565
28.7338,42.3469
28.7338,42.1681
28.7338,41.8890
28.7338,41.4786
28.7338,40.9058
28.7338,40.1396
28.7338,39.1495
28.7338,37.9410
28.7338,36.5687
28.7338,35.0911
28.7338,33.5665
28.7338,32.0534
28.7338,30.6100
28.7338,29.2947
28.7338,28.1660
28.7338,27.2669
28.7338,26.5821
28.7338,26.0826
28.7338,25.7389
28.7338,25.5221
28.7338,25.4029
28.7338,25.3520
28.7338,25.3404
28.7338,25.3398
28.7338,25.3325
28.7338,25.3082
28.7338,25.2566
28.7338,25.1674
28.7338,25.0304
28.7338,24.8354
28.7338,24.5719
28.7338,24.2300
28.7338,23.8101
28.7338,23.3309
28.7338,22.8131
28.7338,22.2772
28.7338,21.7436
28.7338,21.2339
31.2705,21.2339
31.2705,21.4465
31.3038,21.6565
31.3695,21.8586
31.4660,22.0480
31.5909,22.2200
31.5909,22.2200
31.5909,22.2200
31.7412,22.3703
31.7412,22.3703
31.7412,22.3703
31.9132,22.4953
32.1026,22.5918
32.3048,22.6575
32.5147,22.6907
32.5147,22.6907
32.7273,22.6907
32.7273,22.6907
32.9373,22.6575
33.1394,22.5918
33.3288,22.4953
33.5008,22.3703
33.6511,22.2200
33.7761,22.0480
33.8726,21.8586
33.9383,21.6565
33.9715,21.4465
33.9715,21.2539
97.9805,21.2539
97.9805,21.4665
98.0138,21.6765
98.0795,21.8786
98.1760,22.0680
98.1760,22.0680
98.1821,22.0765
98.3009,22.2400
98.3009,22.2400
98.3009,22.2400
98.4512,22.3903
98.4512,22.3903
98.4512,22.3903
98.6232,22.5153
98.8126,22.6118
99.0148,22.6775
99.2247,22.7107
99.2247,22.7107
99.4373,22.7107
99.4373,22.7107
99.6473,22.6775
99.8494,22.6118
100.0388,22.5153
100.2108,22.3903
100.3611,22.2400
100.4861,22.0680
100.5826,21.8786
100.5874,21.8639
164.0305,21.8639
164.0305,22.0765
164.0638,22.2865
164.1295,22.4886
164.2260,22.6780
164.3509,22.8500
164.3509,22.8500
164.3509,22.8500
164.5012,23.0003
164.5012,23.0003
164.5012,23.0003
164.6732,23.1253
164.8626,23.2218
165.0648,23.2875
165.2747,23.3207
165.2747,23.3207
165.4873,23.3207
165.4873,23.3207
165.6973,23.2875
165.8994,23.2218
166.0888,23.1253
166.2608,23.0003
166.4111,22.8500
166.5361,22.6780
166.6326,22.4886
166.6983,22.2865
166.7315,22.0765
166.7315,21.8639
166.6983,21.6540
166.6326,21.4518
166.5361,21.2624
166.4111,21.0904
166.4111,21.0904
166.4111,21.0904
166.2608,20.9401
166.2608,20.9401
166.2608,20.9401
166.0888,20.8152
165.8994,20.7187
165.6973,20.6530
165.4873,20.6197
165.2747,20.6197
165.0648,20.6530
165.0648,20.6530
165.0648,20.6530
164.8626,20.7187
164.8626,20.7187
164.6732,20.8152
164.5012,20.9401
164.5012,20.9401
164.3509,21.0904
164.3509,21.0904
164.2260,21.2624
164.2260,21.2624
164.1295,21.4518
164.0638,21.6540
164.0305,21.8639
100.5874,21.8639
100.6483,21.6765
100.6815,21.4665
100.6815,21.2539
100.6483,21.0440
100.5826,20.8418
100.4861,20.6524
100.3611,20.4804
100.3611,20.4804
100.3611,20.4804
100.2108,20.3301
100.2108,20.3301
100.2108,20.3301
100.0388,20.2052
99.8494,20.1087
99.6473,20.0430
99.4373,20.0097
99.2247,20.0097
99.0148,20.0430
99.0148,20.0430
99.0148,20.0430
98.8126,20.1087
98.8126,20.1087
98.6232,20.2052
98.4512,20.3301
98.4512,20.3301
98.3009,20.4804
98.3009,20.4804
98.1760,20.6524
98.0795,20.8418
98.0795,20.8418
98.0203,21.0240
98.0138,21.0440
97.9805,21.2539
33.9715,21.2539
33.9715,21.2339
33.9383,21.0240
33.8726,20.8218
33.7761,20.6324
33.6511,20.4604
33.6511,20.4604
33.6511,20.4604
33.5008,20.3101
33.5008,20.3101
33.5008,20.3101
33.3288,20.1852
33.1394,20.0887
32.9373,20.0230
32.7273,19.9897
32.5147,19.9897
32.3048,20.0230
32.3048,20.0230
32.3048,20.0230
32.1026,20.0887
32.1026,20.0887
31.9132,20.1852
31.7412,20.3101
31.7412,20.3101
31.5909,20.4604
31.5909,20.4604
31.4660,20.6324
31.3695,20.8218
31.3695,20.8218
31.3310,20.9401
31.3038,21.0240
31.2705,21.2339
28.7338,21.2339
28.7338,21.2330
28.7338,20.7659
28.7338,20.3628
28.7338,20.0398
28.7338,19.7913
28.7338,19.6051
28.7338,19.4690
28.7338,19.3709
28.7338,19.2986
28.7338,19.2399
28.7338,19.2024
28.7338,19.1366
28.7338,19.1354
28.7347,19.0575
28.7348,19.0546
28.7380,18.9671
28.7382,18.9629
28.7449,18.8677
28.7454,18.8622
28.7472,18.8464
28.7569,18.7614
28.7579,18.7548
28.7755,18.6506
28.7771,18.6428
28.8019,18.5376
28.8044,18.5284
28.8373,18.4245
28.8411,18.4141
28.8832,18.3130
28.8883,18.3022
28.9408,18.2036
28.9466,18.1938
29.0095,18.0977
29.0158,18.0890
29.0881,17.9969
29.0948,17.9890
29.1752,17.9023
29.1825,17.8951
29.2697,17.8152
29.2776,17.8085
29.3701,17.7370
29.3789,17.7307
29.4752,17.6686
29.4850,17.6629
29.5838,17.6112
29.5947,17.6061
29.6961,17.5648
29.7064,17.5611
29.8104,17.5289
29.8194,17.5264
29.9247,17.5023
29.9324,17.5007
30.0364,17.4836
30.0430,17.4827
30.1435,17.4716
30.1488,17.4711
30.2434,17.4647
30.2476,17.4645
30.3344,17.4616
30.3372,17.4616
30.4143,17.4608
30.4152,17.4608
30.4851,17.4607
30.4852,17.4607
30.6419,17.4607
31.1533,17.4607
32.2329,17.4607
34.1142,17.4607
37.0309,17.4607
41.2166,17.4607
46.9049,17.4607
54.3290,17.4607
63.5511,17.4607
74.1816,17.4607
85.7570,17.4607
97.8139,17.4607
109.8889,17.4607
121.5186,17.4607
132.2396,17.4607
141.5885,17.4607
149.1573,17.4607
154.9744,17.4607
159.2741,17.4607
162.2918,17.4607
164.2631,17.4607
165.4233,17.4607
166.0080,17.4607
166.2736,17.4607
166.2736,17.4607
Z" /> 
</g>
<g style="fill:#FFFFFF; fill-opacity:1.0000; stroke:none;">
<circle cx="99.3310" cy="21.3602" r="1.1000" /> 
</g>
<g style="fill:#FFFFFF; fill-opacity:1.0000; stroke:none;">
<circle cx="165.3810" cy="21.9702" r="1.1000" /> 
</g>
<g style="fill:#FFFFFF; fill-opacity:1.0000; stroke:none;">
<circle cx="32.6210" cy="21.3402" r="1.1000" /> 
</g>
<g style="fill:#FFFFFF; fill-opacity:1.0000; stroke:none;">
<circle cx="27.8510" cy="124.5902" r="1.1000" /> 
</g>
<g style="fill:#FFFFFF; fill-opacity:1.0000; stroke:none;">
<circle cx="96.9510" cy="124.6102" r="1.1000" /> 
</g>
<g style="fill:#FFFFFF; fill-opacity:1.0000; stroke:none;">
<circle cx="165.4010" cy="123.9802" r="1.1000" /> 
</g>
<g style="fill:#FFFFFF; fill-opacity:1.0000; stroke:none;">
<circle cx="165.9710" cy="72.9902" r="1.1000" /> 
</g> 
</svg>
