<?xml version="1.0" standalone="no"?>
 <!DOCTYPE svg PUBLIC "-//W3C//DTD SVG 1.1//EN" 
 "http://www.w3.org/Graphics/SVG/1.1/DTD/svg11.dtd"> 
<svg
  xmlns:svg="http://www.w3.org/2000/svg"
  xmlns="http://www.w3.org/2000/svg"
  xmlns:xlink="http://www.w3.org/1999/xlink"
  version="1.1"
  width="297.0022mm" height="210.0072mm" viewBox="0.0000 0.0000 297.0022 210.0072">
<title>SVG Image created as spectrogram-left-bottom-F_Silkscreen.svg date 2026/05/13 19:30:40 </title>
  <desc>Image generated by PCBNEW </desc>
<g style="fill:#000000; fill-opacity:1.0000;stroke:#000000; stroke-opacity:1.0000;
stroke-linecap:round; stroke-linejoin:round;"
 transform="translate(0 0) scale(1 1)">
</g>
<g style="fill:none; 
stroke:#000000; stroke-width:1.2500; stroke-opacity:1; 
stroke-linecap:round; stroke-linejoin:round;">
<g transform="rotate(-45.000000 150.2000 99.8000)">
<text x="150.2000" y="99.8000"
textLength="12.2262" font-size="13.3333" lengthAdjust="spacingAndGlyphs"
text-anchor="start" opacity="0" stroke-opacity="0">ノ</text>
</g>
<g class="stroked-text"><desc>ノ</desc>
<path d="M147.8499 86.1853
L149.5335 88.5424
" />
<path d="M149.5335 88.5424
L150.8803 90.5627
" />
<path d="M150.8803 90.5627
L151.2170 92.9197
" />
<path d="M151.2170 92.9197
L151.2170 95.6134
" />
</g></g>
<g style="fill:none; 
stroke:#000000; stroke-width:1.8750; stroke-opacity:1; 
stroke-linecap:round; stroke-linejoin:round;">
<g transform="rotate(-20.000000 34.5000 52.7000)">
<text x="34.5000" y="52.7000"
textLength="18.3393" font-size="20.0000" lengthAdjust="spacingAndGlyphs"
text-anchor="start" opacity="0" stroke-opacity="0">、</text>
</g>
<g class="stroked-text"><desc>、</desc>
<path d="M36.8882 45.2127
L40.7945 47.5916
" />
</g></g>
<g style="fill:none; 
stroke:#000000; stroke-width:1.2500; stroke-opacity:1; 
stroke-linecap:round; stroke-linejoin:round;">
<g transform="rotate(-20.000000 121.0000 46.0000)">
<text x="121.0000" y="46.0000"
textLength="12.2262" font-size="13.3333" lengthAdjust="spacingAndGlyphs"
text-anchor="start" opacity="0" stroke-opacity="0">、</text>
</g>
<g class="stroked-text"><desc>、</desc>
<path d="M122.5921 41.0085
L125.1964 42.5944
" />
</g></g>
<g style="fill:none; 
stroke:#000000; stroke-width:1.8750; stroke-opacity:1; 
stroke-linecap:round; stroke-linejoin:round;">
<g transform="rotate(-240.000000 86.0000 112.3000)">
<text x="86.0000" y="112.3000"
transform="scale(-1 1) translate(-172.000000 0)"
textLength="18.3393" font-size="20.0000" lengthAdjust="spacingAndGlyphs"
text-anchor="start" opacity="0" stroke-opacity="0">ノ</text>
</g>
<g class="stroked-text"><desc>ノ</desc>
<path d="M106.6385 110.4195
L102.5698 108.8952
" />
<path d="M102.5698 108.8952
L99.1197 107.7281
" />
<path d="M99.1197 107.7281
L95.5740 108.1553
" />
<path d="M95.5740 108.1553
L91.6710 109.2011
" />
</g><text x="-76.0000" y="18.6034"
textLength="5.6250" font-size="20.0000" lengthAdjust="spacingAndGlyphs"
text-anchor="start" opacity="0" stroke-opacity="0"></text>
<g class="stroked-text"><desc></desc>
</g><text x="-76.0000" y="42.7525"
textLength="231.9107" font-size="20.0000" lengthAdjust="spacingAndGlyphs"
text-anchor="start" opacity="0" stroke-opacity="0">       ／l           </text>
<g class="stroked-text"><desc>       ／l           </desc>
<path d="M18.0907 25.1050
L8.0907 39.3907
" />
<path d="M26.6621 40.8193
L25.2335 40.1050
" />
<path d="M25.2335 40.1050
L24.5193 38.6764
" />
<path d="M24.5193 38.6764
L24.5193 25.8193
" />
</g><text x="-76.0000" y="66.9017"
textLength="263.3393" font-size="20.0000" lengthAdjust="spacingAndGlyphs"
text-anchor="start" opacity="0" stroke-opacity="0">     （ﾟ､ ｡ ７           </text>
<g class="stroked-text"><desc>     （ﾟ､ ｡ ７           </desc>
<path d="M-6.1950 47.8256
L-6.9093 49.9685
" />
<path d="M-6.9093 49.9685
L-7.6236 52.8256
" />
<path d="M-7.6236 52.8256
L-7.6236 59.9685
" />
<path d="M-7.6236 59.9685
L-6.9093 62.8256
" />
<path d="M-6.9093 62.8256
L-6.1950 64.2542
" />
<path d="M0.2335 49.2542
L0.9478 49.2542
" />
<path d="M0.9478 49.2542
L1.6621 49.9685
" />
<path d="M1.6621 49.9685
L1.6621 50.6828
" />
<path d="M1.6621 50.6828
L0.9478 51.3970
" />
<path d="M0.9478 51.3970
L0.2335 51.3970
" />
<path d="M0.2335 51.3970
L-0.4807 50.6828
" />
<path d="M-0.4807 50.6828
L-0.4807 49.9685
" />
<path d="M-0.4807 49.9685
L0.2335 49.2542
" />
<path d="M8.0907 62.8256
L9.5193 64.2542
" />
<path d="M28.0907 59.9685
L29.5193 59.9685
" />
<path d="M29.5193 59.9685
L30.9478 61.3970
" />
<path d="M30.9478 61.3970
L30.9478 62.8256
" />
<path d="M30.9478 62.8256
L29.5193 64.2542
" />
<path d="M29.5193 64.2542
L28.0907 64.2542
" />
<path d="M28.0907 64.2542
L26.6621 62.8256
" />
<path d="M26.6621 62.8256
L26.6621 61.3970
" />
<path d="M26.6621 61.3970
L28.0907 59.9685
" />
<path d="M47.3764 49.9685
L57.3764 49.9685
" />
<path d="M57.3764 49.9685
L50.9478 64.9685
" />
</g><text x="-76.0000" y="91.0508"
textLength="242.6250" font-size="20.0000" lengthAdjust="spacingAndGlyphs"
text-anchor="start" opacity="0" stroke-opacity="0">       l  ~ヽ         </text>
<g class="stroked-text"><desc>       l  ~ヽ         </desc>
<path d="M10.9478 89.1176
L9.5193 88.4033
" />
<path d="M9.5193 88.4033
L8.8050 86.9748
" />
<path d="M8.8050 86.9748
L8.8050 74.1176
" />
<path d="M37.3764 83.4033
L38.0907 82.6891
" />
<path d="M38.0907 82.6891
L39.5193 81.9748
" />
<path d="M39.5193 81.9748
L42.3764 83.4033
" />
<path d="M42.3764 83.4033
L43.8050 82.6891
" />
<path d="M43.8050 82.6891
L44.5193 81.9748
" />
<path d="M51.6621 77.6891
L56.6621 84.8319
" />
</g><text x="-76.0000" y="115.2000"
textLength="151.1964" font-size="20.0000" lengthAdjust="spacingAndGlyphs"
text-anchor="start" opacity="0" stroke-opacity="0">       じしf_,)</text>
<g class="stroked-text"><desc>       じしf_,)</desc>
<path d="M13.8050 102.5525
L15.2335 104.6954
" />
<path d="M15.9478 101.8382
L17.3764 103.9811
" />
<path d="M10.2335 97.5525
L10.2335 109.6954
" />
<path d="M10.2335 109.6954
L10.9478 111.8382
" />
<path d="M10.9478 111.8382
L12.3764 113.2668
" />
<path d="M12.3764 113.2668
L14.5193 113.2668
" />
<path d="M14.5193 113.2668
L16.6621 111.8382
" />
<path d="M16.6621 111.8382
L17.3764 108.9811
" />
<path d="M25.9478 97.5525
L25.9478 109.6954
" />
<path d="M25.9478 109.6954
L26.6621 111.8382
" />
<path d="M26.6621 111.8382
L28.0907 113.2668
" />
<path d="M28.0907 113.2668
L30.2335 113.2668
" />
<path d="M30.2335 113.2668
L32.3764 111.8382
" />
<path d="M32.3764 111.8382
L33.0907 108.9811
" />
<path d="M38.0907 103.2668
L43.8050 103.2668
" />
<path d="M40.2335 113.2668
L40.2335 100.4096
" />
<path d="M40.2335 100.4096
L40.9478 98.9811
" />
<path d="M40.9478 98.9811
L42.3764 98.2668
" />
<path d="M42.3764 98.2668
L43.8050 98.2668
" />
<path d="M45.2336 114.6954
L56.6621 114.6954
" />
<path d="M60.9478 112.5525
L60.9478 113.2668
" />
<path d="M60.9478 113.2668
L60.2335 114.6954
" />
<path d="M60.2335 114.6954
L59.5193 115.4096
" />
<path d="M65.9478 118.9811
L66.6621 118.2668
" />
<path d="M66.6621 118.2668
L68.0907 116.1239
" />
<path d="M68.0907 116.1239
L68.8050 114.6954
" />
<path d="M68.8050 114.6954
L69.5193 112.5525
" />
<path d="M69.5193 112.5525
L70.2335 108.9811
" />
<path d="M70.2335 108.9811
L70.2335 106.1239
" />
<path d="M70.2335 106.1239
L69.5193 102.5525
" />
<path d="M69.5193 102.5525
L68.8050 100.4096
" />
<path d="M68.8050 100.4096
L68.0907 98.9811
" />
<path d="M68.0907 98.9811
L66.6621 96.8382
" />
<path d="M66.6621 96.8382
L65.9478 96.1239
" />
</g></g>
<g style="fill:none; 
stroke:#000000; stroke-width:1.2500; stroke-opacity:1; 
stroke-linecap:round; stroke-linejoin:round;">
<text x="47.3000" y="24.1022"
textLength="16.9881" font-size="13.3333" lengthAdjust="spacingAndGlyphs"
text-anchor="start" opacity="0" stroke-opacity="0">  </text>
<g class="stroked-text"><desc>  </desc>
</g><text x="47.3000" y="40.2017"
textLength="154.6071" font-size="13.3333" lengthAdjust="spacingAndGlyphs"
text-anchor="start" opacity="0" stroke-opacity="0">       ／l           </text>
<g class="stroked-text"><desc>       ／l           </desc>
<path d="M110.0271 28.4367
L103.3605 37.9605
" />
<path d="M115.7414 38.9129
L114.7890 38.4367
" />
<path d="M114.7890 38.4367
L114.3128 37.4843
" />
<path d="M114.3128 37.4843
L114.3128 28.9129
" />
</g><text x="47.3000" y="56.3011"
textLength="177.9405" font-size="13.3333" lengthAdjust="spacingAndGlyphs"
text-anchor="start" opacity="0" stroke-opacity="0">     （ﾟ  ｡ ７           </text>
<g class="stroked-text"><desc>     （ﾟ  ｡ ７           </desc>
<path d="M93.8367 43.5837
L93.3605 45.0123
" />
<path d="M93.3605 45.0123
L92.8843 46.9171
" />
<path d="M92.8843 46.9171
L92.8843 51.6790
" />
<path d="M92.8843 51.6790
L93.3605 53.5837
" />
<path d="M93.3605 53.5837
L93.8367 54.5361
" />
<path d="M98.1224 44.5361
L98.5986 44.5361
" />
<path d="M98.5986 44.5361
L99.0747 45.0123
" />
<path d="M99.0747 45.0123
L99.0747 45.4885
" />
<path d="M99.0747 45.4885
L98.5986 45.9647
" />
<path d="M98.5986 45.9647
L98.1224 45.9647
" />
<path d="M98.1224 45.9647
L97.6462 45.4885
" />
<path d="M97.6462 45.4885
L97.6462 45.0123
" />
<path d="M97.6462 45.0123
L98.1224 44.5361
" />
<path d="M119.0747 51.6790
L120.0271 51.6790
" />
<path d="M120.0271 51.6790
L120.9795 52.6314
" />
<path d="M120.9795 52.6314
L120.9795 53.5837
" />
<path d="M120.9795 53.5837
L120.0271 54.5361
" />
<path d="M120.0271 54.5361
L119.0747 54.5361
" />
<path d="M119.0747 54.5361
L118.1224 53.5837
" />
<path d="M118.1224 53.5837
L118.1224 52.6314
" />
<path d="M118.1224 52.6314
L119.0747 51.6790
" />
<path d="M131.9319 45.0123
L138.5986 45.0123
" />
<path d="M138.5986 45.0123
L134.3128 55.0123
" />
</g><text x="47.3000" y="72.4006"
textLength="161.7500" font-size="13.3333" lengthAdjust="spacingAndGlyphs"
text-anchor="start" opacity="0" stroke-opacity="0">       l  ~ヽ         </text>
<g class="stroked-text"><desc>       l  ~ヽ         </desc>
<path d="M105.2652 71.1118
L104.3128 70.6356
" />
<path d="M104.3128 70.6356
L103.8367 69.6832
" />
<path d="M103.8367 69.6832
L103.8367 61.1118
" />
<path d="M122.8843 67.3022
L123.3605 66.8260
" />
<path d="M123.3605 66.8260
L124.3128 66.3498
" />
<path d="M124.3128 66.3498
L126.2176 67.3022
" />
<path d="M126.2176 67.3022
L127.1700 66.8260
" />
<path d="M127.1700 66.8260
L127.6462 66.3498
" />
<path d="M132.4081 63.4927
L135.7414 68.2546
" />
</g><text x="47.3000" y="88.5000"
textLength="100.7976" font-size="13.3333" lengthAdjust="spacingAndGlyphs"
text-anchor="start" opacity="0" stroke-opacity="0">       じしf_,)</text>
<g class="stroked-text"><desc>       じしf_,)</desc>
<path d="M107.1700 80.0683
L108.1224 81.4969
" />
<path d="M108.5986 79.5921
L109.5509 81.0207
" />
<path d="M104.7890 76.7350
L104.7890 84.8302
" />
<path d="M104.7890 84.8302
L105.2652 86.2588
" />
<path d="M105.2652 86.2588
L106.2176 87.2112
" />
<path d="M106.2176 87.2112
L107.6462 87.2112
" />
<path d="M107.6462 87.2112
L109.0748 86.2588
" />
<path d="M109.0748 86.2588
L109.5509 84.3540
" />
<path d="M115.2652 76.7350
L115.2652 84.8302
" />
<path d="M115.2652 84.8302
L115.7414 86.2588
" />
<path d="M115.7414 86.2588
L116.6938 87.2112
" />
<path d="M116.6938 87.2112
L118.1224 87.2112
" />
<path d="M118.1224 87.2112
L119.5509 86.2588
" />
<path d="M119.5509 86.2588
L120.0271 84.3540
" />
<path d="M123.3605 80.5445
L127.1700 80.5445
" />
<path d="M124.7890 87.2112
L124.7890 78.6398
" />
<path d="M124.7890 78.6398
L125.2652 77.6874
" />
<path d="M125.2652 77.6874
L126.2176 77.2112
" />
<path d="M126.2176 77.2112
L127.1700 77.2112
" />
<path d="M128.1224 88.1636
L135.7414 88.1636
" />
<path d="M138.5986 86.7350
L138.5986 87.2112
" />
<path d="M138.5986 87.2112
L138.1224 88.1636
" />
<path d="M138.1224 88.1636
L137.6462 88.6398
" />
<path d="M141.9319 91.0207
L142.4081 90.5445
" />
<path d="M142.4081 90.5445
L143.3605 89.1160
" />
<path d="M143.3605 89.1160
L143.8367 88.1636
" />
<path d="M143.8367 88.1636
L144.3128 86.7350
" />
<path d="M144.3128 86.7350
L144.7890 84.3540
" />
<path d="M144.7890 84.3540
L144.7890 82.4493
" />
<path d="M144.7890 82.4493
L144.3128 80.0683
" />
<path d="M144.3128 80.0683
L143.8367 78.6398
" />
<path d="M143.8367 78.6398
L143.3605 77.6874
" />
<path d="M143.3605 77.6874
L142.4081 76.2588
" />
<path d="M142.4081 76.2588
L141.9319 75.7826
" />
</g><g transform="rotate(-180.000000 152.3000 96.4000)">
<text x="152.3000" y="96.4000"
textLength="12.2262" font-size="13.3333" lengthAdjust="spacingAndGlyphs"
text-anchor="start" opacity="0" stroke-opacity="0">ノ</text>
</g>
<g class="stroked-text"><desc>ノ</desc>
<path d="M144.3348 107.6888
L144.8110 104.8317
" />
<path d="M144.8110 104.8317
L145.2872 102.4507
" />
<path d="M145.2872 102.4507
L146.7157 100.5460
" />
<path d="M146.7157 100.5460
L148.6205 98.6412
" />
</g></g>
<g style="fill:none; 
stroke:#000000; stroke-width:1.8750; stroke-opacity:1; 
stroke-linecap:round; stroke-linejoin:round;">
<g transform="rotate(-320.000000 66.9000 117.1000)">
<text x="66.9000" y="117.1000"
textLength="18.3393" font-size="20.0000" lengthAdjust="spacingAndGlyphs"
text-anchor="start" opacity="0" stroke-opacity="0">ノ</text>
</g>
<g class="stroked-text"><desc>ノ</desc>
<path d="M86.9370 111.8083
L83.6351 114.6322
" />
<path d="M83.6351 114.6322
L80.7922 116.9090
" />
<path d="M80.7922 116.9090
L77.3142 117.7203
" />
<path d="M77.3142 117.7203
L73.2889 118.0724
" />
</g></g>
<g style="fill:none; 
stroke:#000000; stroke-width:1.2500; stroke-opacity:1; 
stroke-linecap:round; stroke-linejoin:round;">
<g transform="rotate(-330.000000 101.5000 54.2000)">
<text x="101.5000" y="54.2000"
textLength="8.8929" font-size="13.3333" lengthAdjust="spacingAndGlyphs"
text-anchor="start" opacity="0" stroke-opacity="0">~</text>
</g>
<g class="stroked-text"><desc>~</desc>
<path d="M105.5861 50.6721
L106.2366 50.4978
" />
<path d="M106.2366 50.4978
L107.2995 50.5616
" />
<path d="M107.2995 50.5616
L108.4729 52.3388
" />
<path d="M108.4729 52.3388
L109.5358 52.4026
" />
<path d="M109.5358 52.4026
L110.1863 52.2283
" />
</g></g>
<g style="fill:#000000; fill-opacity:1.0000; stroke:none;">
<circle cx="99.3310" cy="21.3602" r="1.1000" /> 
</g>
<g style="fill:#000000; fill-opacity:1.0000; stroke:none;">
<circle cx="165.3810" cy="21.9702" r="1.1000" /> 
</g>
<g style="fill:#000000; fill-opacity:1.0000; stroke:none;">
<circle cx="32.6210" cy="21.3402" r="1.1000" /> 
</g>
<g style="fill:#000000; fill-opacity:1.0000; stroke:none;">
<circle cx="27.8510" cy="124.5902" r="1.1000" /> 
</g>
<g style="fill:#000000; fill-opacity:1.0000; stroke:none;">
<circle cx="96.9510" cy="124.6102" r="1.1000" /> 
</g>
<g style="fill:#000000; fill-opacity:1.0000; stroke:none;">
<circle cx="165.4010" cy="123.9802" r="1.1000" /> 
</g>
<g style="fill:#000000; fill-opacity:1.0000; stroke:none;">
<circle cx="165.9710" cy="72.9902" r="1.1000" /> 
</g> 
</svg>
