<?xml version="1.0" standalone="no"?>
 <!DOCTYPE svg PUBLIC "-//W3C//DTD SVG 1.1//EN" 
 "http://www.w3.org/Graphics/SVG/1.1/DTD/svg11.dtd"> 
<svg
  xmlns:svg="http://www.w3.org/2000/svg"
  xmlns="http://www.w3.org/2000/svg"
  xmlns:xlink="http://www.w3.org/1999/xlink"
  version="1.1"
  width="297.0022mm" height="210.0072mm" viewBox="0.0000 0.0000 297.0022 210.0072">
<title>SVG Image created as spectrogram-left-bottom-Edge_Cuts.svg date 2026/05/13 19:30:40 </title>
  <desc>Image generated by PCBNEW </desc>
<g style="fill:#000000; fill-opacity:1.0000;stroke:#000000; stroke-opacity:1.0000;
stroke-linecap:round; stroke-linejoin:round;"
 transform="translate(0 0) scale(1 1)">
</g>
<g style="fill:none; 
stroke:#000000; stroke-width:0.2000; stroke-opacity:1; 
stroke-linecap:round; stroke-linejoin:round;">
<path d="M28.8569 18.1473
L28.9307 18.0346
" />
<path d="M169.9833 80.4088
L169.9833 89.3567
" />
<path d="M28.6333 37.9610
L28.6333 36.5887
" />
<path d="M38.1585 51.9287
L38.1585 50.6844
" />
<path d="M141.6085 17.3602
L149.1773 17.3602
" />
<path d="M168.8970 127.8052
L168.6858 127.9776
" />
<path d="M36.4251 44.4106
L36.3499 44.4102
" />
<path d="M112.7201 128.6102
L100.3432 128.6102
" />
<path d="M33.3960 65.2569
L33.3966 65.1793
" />
<path d="M53.9464 128.6102
L45.5110 128.6102
" />
<path d="M35.5652 63.4602
L35.6230 63.4602
" />
<path d="M26.0561 128.6102
L25.7682 128.6102
" />
<path d="M37.0790 63.3678
L37.2001 63.3232
" />
<path d="M23.8713 117.7730
L23.8713 114.6538
" />
<path d="M33.3960 80.5160
L33.3960 80.5116
" />
<path d="M33.3960 80.3474
L33.3960 80.1545
" />
<path d="M31.3874 82.5102
L31.4527 82.5102
" />
<path d="M35.9873 44.4102
L35.8410 44.4102
" />
<path d="M38.1583 46.1551
L38.1566 46.0683
" />
<path d="M35.4168 63.4602
L35.4448 63.4602
" />
<path d="M121.5386 17.3602
L132.2596 17.3602
" />
<path d="M25.4150 82.5180
L25.5147 82.5127
" />
<path d="M32.9500 82.0143
L33.0405 81.9118
" />
<path d="M30.5259 82.5102
L30.8074 82.5102
" />
<path d="M33.5411 64.3999
L33.5999 64.2817
" />
<path d="M34.2743 63.6341
L34.3940 63.5813
" />
<path d="M169.9833 22.3820
L169.9833 23.7338
" />
<path d="M31.1733 17.3602
L32.2528 17.3602
" />
<path d="M167.7482 128.4487
L167.5063 128.5099
" />
<path d="M37.8294 45.0420
L37.7417 44.9374
" />
<path d="M168.6858 127.9776
L168.4628 128.1302
" />
<path d="M33.3960 74.5640
L33.3960 73.2278
" />
<path d="M38.0726 62.3598
L38.1046 62.2386
" />
<path d="M29.7513 82.5102
L30.1702 82.5102
" />
<path d="M38.1585 54.5988
L38.1585 53.2507
" />
<path d="M29.5097 44.2354
L29.3935 44.1702
" />
<path d="M29.4294 17.5786
L29.5468 17.5171
" />
<path d="M24.7128 128.4173
L24.5978 128.3487
" />
<path d="M36.7233 63.4423
L36.8383 63.4258
" />
<path d="M38.1585 46.9455
L38.1585 46.6660
" />
<path d="M23.8713 96.5186
L23.8713 93.3927
" />
<path d="M34.6364 63.5100
L34.7545 63.4884
" />
<path d="M30.5197 44.4102
L30.4613 44.4102
" />
<path d="M33.0405 81.9118
L33.1216 81.8029
" />
<path d="M169.9833 121.5141
L169.9833 123.1384
" />
<path d="M35.8226 63.4602
L35.8891 63.4602
" />
<path d="M38.1585 48.6346
L38.1585 47.9022
" />
<path d="M28.6333 19.3909
L28.6333 19.3186
" />
<path d="M38.1585 59.2228
L38.1585 58.2849
" />
<path d="M169.6519 19.1500
L169.7539 19.3902
" />
<path d="M28.6333 20.3828
L28.6333 20.0598
" />
<path d="M37.9084 62.7160
L37.9753 62.6004
" />
<path d="M24.3828 82.9415
L24.4863 82.8525
" />
<path d="M35.4769 63.4602
L35.5161 63.4602
" />
<path d="M29.3163 17.6515
L29.4294 17.5786
" />
<path d="M33.4593 64.6422
L33.4947 64.5208
" />
<path d="M38.0300 62.4811
L38.0726 62.3598
" />
<path d="M24.8297 82.6473
L24.9508 82.6026
" />
<path d="M169.9737 20.5436
L169.9809 20.7332
" />
<path d="M166.2728 17.3602
L166.4100 17.3603
" />
<path d="M30.1702 82.5102
L30.5259 82.5102
" />
<path d="M38.0720 45.5088
L38.0292 45.3875
" />
<path d="M33.3960 66.2575
L33.3960 65.8962
" />
<path d="M28.6578 18.7440
L28.6776 18.6267
" />
<path d="M29.9900 44.3818
L29.8717 44.3601
" />
<path d="M36.6148 63.4524
L36.7233 63.4423
" />
<path d="M36.1743 63.4602
L36.2053 63.4602
" />
<path d="M85.7770 17.3602
L97.8339 17.3602
" />
<path d="M23.8713 84.4008
L23.8713 84.3292
" />
<path d="M34.7545 63.4884
L34.8677 63.4742
" />
<path d="M28.6333 19.6251
L28.6333 19.4890
" />
<path d="M35.7543 63.4602
L35.8226 63.4602
" />
<path d="M35.6230 63.4602
L35.6869 63.4602
" />
<path d="M24.7109 82.7041
L24.8297 82.6473
" />
<path d="M23.9577 127.5117
L23.9256 127.3905
" />
<path d="M54.3490 17.3602
L63.5711 17.3602
" />
<path d="M24.0545 83.3701
L24.1213 83.2545
" />
<path d="M164.7758 128.6102
L163.0936 128.6102
" />
<path d="M30.8433 44.4102
L30.7261 44.4102
" />
<path d="M30.5757 44.4102
L30.5197 44.4102
" />
<path d="M23.8713 126.3233
L23.8713 125.8488
" />
<path d="M36.4264 63.4599
L36.5151 63.4578
" />
<path d="M30.0260 17.3835
L30.1372 17.3712
" />
<path d="M169.9655 125.5524
L169.9436 125.7715
" />
<path d="M169.2064 18.4786
L169.3759 18.6918
" />
<path d="M36.1192 63.4602
L36.1466 63.4602
" />
<path d="M28.6531 42.9909
L28.6422 42.8813
" />
<path d="M169.9833 97.6667
L169.9833 104.9852
" />
<path d="M37.5418 44.7511
L37.4319 44.6718
" />
<path d="M24.9508 82.6026
L25.0721 82.5689
" />
<path d="M36.5151 63.4578
L36.6148 63.4524
" />
<path d="M33.3960 80.1545
L33.3960 79.8492
" />
<path d="M23.8713 125.8488
L23.8713 125.0920
" />
<path d="M32.0375 82.4820
L32.1557 82.4605
" />
<path d="M169.0942 127.6152
L168.8970 127.8052
" />
<path d="M38.1585 61.2009
L38.1585 60.9197
" />
<path d="M25.0740 128.5520
L24.9527 128.5184
" />
<path d="M23.9998 83.4893
L24.0545 83.3701
" />
<path d="M28.6333 19.2599
L28.6333 19.2027
" />
<path d="M35.1545 63.4604
L35.2250 63.4602
" />
<path d="M154.9944 17.3602
L159.2941 17.3602
" />
<path d="M30.4851 17.3602
L30.6619 17.3602
" />
<path d="M169.9833 124.6398
L169.9833 124.8780
" />
<path d="M35.3841 44.4102
L35.0514 44.4102
" />
<path d="M38.1585 49.5694
L38.1585 48.6346
" />
<path d="M24.0555 127.7522
L24.0006 127.6330
" />
<path d="M37.5435 63.1180
L37.6470 63.0289
" />
<path d="M28.6333 25.2766
L28.6333 25.1874
" />
<path d="M36.9558 44.4685
L36.8365 44.4443
" />
<path d="M24.8316 128.4740
L24.7128 128.4173
" />
<path d="M166.7535 17.3675
L166.9587 17.3807
" />
<path d="M33.3960 80.4994
L33.3960 80.4538
" />
<path d="M33.3960 80.5417
L33.3960 80.5254
" />
<path d="M23.8713 100.0038
L23.8713 96.5186
" />
<path d="M169.9436 125.7715
L169.9087 126.0030
" />
<path d="M25.5162 128.6078
L25.4166 128.6025
" />
<path d="M28.6333 19.2027
L28.6333 19.1354
" />
<path d="M28.6333 25.3720
L28.6333 25.3604
" />
<path d="M28.6333 21.2530
L28.6333 20.7859
" />
<path d="M169.9833 110.9805
L169.9833 115.6157
" />
<path d="M37.3170 44.6032
L37.1982 44.5465
" />
<path d="M33.3960 65.6496
L33.3960 65.4900
" />
<path d="M28.9307 18.0346
L29.0148 17.9275
" />
<path d="M28.9065 43.7012
L28.8362 43.5870
" />
<path d="M24.1225 127.8678
L24.0555 127.7522
" />
<path d="M169.9833 104.9852
L169.9833 110.9805
" />
<path d="M169.8326 19.6333
L169.8908 19.8746
" />
<path d="M32.2766 82.4300
L32.3980 82.3891
" />
<path d="M33.7165 44.4102
L33.2218 44.4102
" />
<path d="M36.3499 44.4102
L36.2887 44.4102
" />
<path d="M33.3966 65.1793
L33.3991 65.0887
" />
<path d="M37.9073 45.1527
L37.8294 45.0420
" />
<path d="M135.0490 128.6102
L124.4486 128.6102
" />
<path d="M32.3980 82.3891
L32.5178 82.3363
" />
<path d="M132.2596 17.3602
L141.6085 17.3602
" />
<path d="M33.3960 65.3212
L33.3960 65.2569
" />
<path d="M169.9833 124.1201
L169.9833 124.6398
" />
<path d="M35.3600 63.4602
L35.3896 63.4602
" />
<path d="M35.2250 63.4602
L35.2809 63.4602
" />
<path d="M166.9587 17.3807
L167.1800 17.4044
" />
<path d="M28.6333 25.5421
L28.6333 25.4229
" />
<path d="M33.2509 81.5706
L33.2974 81.4497
" />
<path d="M169.9833 21.0368
L169.9833 21.2141
" />
<path d="M168.2304 128.2606
L167.9911 128.3666
" />
<path d="M24.4863 82.8525
L24.5961 82.7729
" />
<path d="M36.2905 63.4602
L36.3510 63.4602
" />
<path d="M26.7853 128.6102
L26.0561 128.6102
" />
<path d="M34.1342 17.3602
L37.0509 17.3602
" />
<path d="M34.1989 44.4102
L33.7165 44.4102
" />
<path d="M27.3727 82.5102
L27.8233 82.5102
" />
<path d="M25.0721 82.5689
L25.1914 82.5446
" />
<path d="M23.8713 125.0920
L23.8713 123.9789
" />
<path d="M30.5343 128.6102
L28.1974 128.6102
" />
<path d="M34.0465 63.7752
L34.1580 63.6991
" />
<path d="M28.6333 24.2500
L28.6333 23.8301
" />
<path d="M23.8715 84.2563
L23.8732 84.1697
" />
<path d="M38.1585 61.3860
L38.1585 61.2009
" />
<path d="M35.9513 63.4602
L36.0065 63.4602
" />
<path d="M33.1921 81.6888
L33.2509 81.5706
" />
<path d="M38.0292 45.3875
L37.9743 45.2682
" />
<path d="M33.3960 75.8395
L33.3960 74.5640
" />
<path d="M24.1213 83.2545
L24.1991 83.1437
" />
<path d="M38.1518 45.9701
L38.1425 45.8629
" />
<path d="M28.6333 23.3509
L28.6333 22.8331
" />
<path d="M169.6947 126.7272
L169.5775 126.9637
" />
<path d="M169.9831 20.8987
L169.9833 21.0368
" />
<path d="M23.8713 107.4752
L23.8713 103.7040
" />
<path d="M38.1425 45.8629
L38.1272 45.7487
" />
<path d="M33.3960 71.8823
L33.3960 70.5791
" />
<path d="M33.6705 64.1675
L33.7516 64.0586
" />
<path d="M37.6455 44.8401
L37.5418 44.7511
" />
<path d="M169.9833 38.4722
L169.9833 45.3074
" />
<path d="M25.4166 128.6025
L25.3082 128.5925
" />
<path d="M28.8000 82.5102
L29.2883 82.5102
" />
<path d="M38.1585 61.5785
L38.1585 61.5027
" />
<path d="M30.3057 44.4087
L30.2092 44.4045
" />
<path d="M30.7261 44.4102
L30.6407 44.4102
" />
<path d="M29.5468 17.5171
L29.6672 17.4680
" />
<path d="M25.1933 128.5761
L25.0740 128.5520
" />
<path d="M36.1466 63.4602
L36.1743 63.4602
" />
<path d="M33.3960 69.3697
L33.3960 68.3056
" />
<path d="M28.6333 40.9258
L28.6333 40.1596
" />
<path d="M28.6333 25.3597
L28.6333 25.3525
" />
<path d="M38.1585 50.6844
L38.1585 49.5694
" />
<path d="M33.3960 70.5791
L33.3960 69.3697
" />
<path d="M37.0509 17.3602
L41.2366 17.3602
" />
<path d="M31.2181 44.4102
L31.0035 44.4102
" />
<path d="M31.5670 82.5102
L31.6376 82.5101
" />
<path d="M28.6333 25.3525
L28.6333 25.3281
" />
<path d="M23.8732 126.9522
L23.8715 126.8654
" />
<path d="M169.9833 115.6157
L169.9833 119.0667
" />
<path d="M167.1800 17.4044
L167.4131 17.4417
" />
<path d="M24.1991 83.1437
L24.2866 83.0390
" />
<path d="M36.8383 63.4258
L36.9576 63.4015
" />
<path d="M149.1773 17.3602
L154.9944 17.3602
" />
<path d="M38.1585 46.2282
L38.1583 46.1551
" />
<path d="M23.8713 85.2811
L23.8713 84.8027
" />
<path d="M38.1585 60.9197
L38.1585 60.5147
" />
<path d="M23.8713 126.7923
L23.8713 126.7211
" />
<path d="M30.2405 17.3642
L30.3336 17.3611
" />
<path d="M38.1585 53.2507
L38.1585 51.9287
" />
<path d="M33.2974 81.4497
L33.3327 81.3282
" />
<path d="M35.4448 63.4602
L35.4769 63.4602
" />
<path d="M166.4100 17.3603
L166.5691 17.3617
" />
<path d="M28.6362 42.7802
L28.6338 42.6898
" />
<path d="M169.9833 125.0146
L169.9822 125.1694
" />
<path d="M28.6333 33.5865
L28.6333 32.0734
" />
<path d="M28.6333 21.7636
L28.6333 21.2530
" />
<path d="M33.3960 78.7987
L33.3960 78.0019
" />
<path d="M169.9833 28.8757
L169.9833 33.0269
" />
<path d="M25.6047 128.6099
L25.5162 128.6078
" />
<path d="M166.1488 128.6102
L165.7130 128.6102
" />
<path d="M30.4613 44.4102
L30.3905 44.4101
" />
<path d="M169.5252 18.9164
L169.6519 19.1500
" />
<path d="M33.3960 80.5103
L33.3960 80.5100
" />
<path d="M28.6333 42.4765
L28.6333 42.3669
" />
<path d="M23.8713 86.0429
L23.8713 85.2811
" />
<path d="M35.5161 63.4602
L35.5652 63.4602
" />
<path d="M37.7431 62.9314
L37.8307 62.8267
" />
<path d="M169.7539 19.3902
L169.8326 19.6333
" />
<path d="M33.3870 80.9830
L33.3930 80.8817
" />
<path d="M30.6619 17.3602
L31.1733 17.3602
" />
<path d="M41.2366 17.3602
L46.9249 17.3602
" />
<path d="M33.1216 81.8029
L33.1921 81.6888
" />
<path d="M36.0889 63.4602
L36.1192 63.4602
" />
<path d="M169.9833 71.1764
L169.9833 80.4088
" />
<path d="M31.9244 82.4962
L32.0375 82.4820
" />
<path d="M34.0377 128.6102
L30.5343 128.6102
" />
<path d="M33.3960 78.0019
L33.3960 77.0026
" />
<path d="M36.9576 63.4015
L37.0790 63.3678
" />
<path d="M28.6776 18.6267
L28.7060 18.5062
" />
<path d="M28.6343 19.0537
L28.6377 18.9597
" />
<path d="M63.5711 17.3602
L74.2016 17.3602
" />
<path d="M25.6034 82.5106
L25.6788 82.5102
" />
<path d="M74.2016 17.3602
L85.7770 17.3602
" />
<path d="M28.6450 18.8557
L28.6578 18.7440
" />
<path d="M23.8715 126.8654
L23.8713 126.7923
" />
<path d="M33.7516 64.0586
L33.8421 63.9562
" />
<path d="M162.3118 17.3602
L164.2831 17.3602
" />
<path d="M28.6333 19.3186
L28.6333 19.2599
" />
<path d="M28.3054 82.5102
L28.8000 82.5102
" />
<path d="M32.1557 82.4605
L32.2766 82.4300
" />
<path d="M28.6333 20.7859
L28.6333 20.3828
" />
<path d="M169.9583 20.3342
L169.9737 20.5436
" />
<path d="M144.0423 128.6102
L135.0490 128.6102
" />
<path d="M33.3960 80.7135
L33.3960 80.6508
" />
<path d="M31.0035 44.4102
L30.8433 44.4102
" />
<path d="M32.7456 82.1952
L32.8513 82.1091
" />
<path d="M32.2712 44.4102
L31.8531 44.4102
" />
<path d="M35.6869 63.4602
L35.7543 63.4602
" />
<path d="M28.6333 36.5887
L28.6333 35.1111
" />
<path d="M28.6333 19.8113
L28.6333 19.6251
" />
<path d="M23.8713 84.8027
L23.8713 84.5340
" />
<path d="M28.6333 42.3669
L28.6333 42.1881
" />
<path d="M28.6333 35.1111
L28.6333 33.5865
" />
<path d="M28.1974 128.6102
L26.7853 128.6102
" />
<path d="M33.3991 65.0887
L33.4051 64.9875
" />
<path d="M36.2430 63.4602
L36.2905 63.4602
" />
<path d="M35.3896 63.4602
L35.4168 63.4602
" />
<path d="M169.9833 123.1384
L169.9833 124.1201
" />
<path d="M37.1982 44.5465
L37.0771 44.5020
" />
<path d="M38.1566 61.8007
L38.1583 61.7141
" />
<path d="M169.7873 126.4854
L169.6947 126.7272
" />
<path d="M26.1861 82.5102
L26.3825 82.5102
" />
<path d="M33.4337 64.7620
L33.4593 64.6422
" />
<path d="M38.1427 62.0059
L38.1519 61.8987
" />
<path d="M37.0771 44.5020
L36.9558 44.4685
" />
<path d="M28.6333 26.1025
L28.6333 25.7589
" />
<path d="M38.1585 46.2909
L38.1585 46.2282
" />
<path d="M28.6333 25.1874
L28.6333 25.0504
" />
<path d="M23.9026 127.2717
L23.8872 127.1576
" />
<path d="M35.6437 44.4102
L35.3841 44.4102
" />
<path d="M169.9833 53.2722
L169.9833 62.0130
" />
<path d="M23.8778 84.0718
L23.8871 83.9646
" />
<path d="M35.8891 63.4602
L35.9513 63.4602
" />
<path d="M30.3336 17.3611
L30.4142 17.3603
" />
<path d="M28.6333 19.4890
L28.6333 19.3909
" />
<path d="M38.1585 47.3483
L38.1585 46.9455
" />
<path d="M33.3960 66.7612
L33.3960 66.2575
" />
<path d="M34.9735 63.4658
L35.0699 63.4617
" />
<path d="M29.0148 17.9275
L29.1078 17.8272
" />
<path d="M169.9773 125.3502
L169.9655 125.5524
" />
<path d="M33.3960 80.5100
L33.3960 80.4994
" />
<path d="M25.6799 128.6102
L25.6047 128.6099
" />
<path d="M28.6333 30.6300
L28.6333 29.3147
" />
<path d="M28.6333 24.5919
L28.6333 24.2500
" />
<path d="M28.6338 42.6898
L28.6333 42.6124
" />
<path d="M28.9875 43.8102
L28.9065 43.7012
" />
<path d="M35.2809 63.4602
L35.3248 63.4602
" />
<path d="M31.8185 82.5046
L31.9244 82.4962
" />
<path d="M29.2883 82.5102
L29.7513 82.5102
" />
<path d="M165.7130 128.6102
L164.7758 128.6102
" />
<path d="M32.5178 82.3363
L32.6340 82.2713
" />
<path d="M23.8713 90.7690
L23.8713 88.7129
" />
<path d="M38.1583 61.7141
L38.1585 61.6412
" />
<path d="M28.7445 18.3847
L28.7945 18.2644
" />
<path d="M29.6672 17.4680
L29.7888 17.4304
" />
<path d="M166.3270 128.6102
L166.1488 128.6102
" />
<path d="M169.9317 20.1098
L169.9583 20.3342
" />
<path d="M33.3960 80.6025
L33.3960 80.5668
" />
<path d="M38.9494 128.6102
L34.0377 128.6102
" />
<path d="M28.7945 18.2644
L28.8569 18.1473
" />
<path d="M28.6333 22.2971
L28.6333 21.7636
" />
<path d="M38.1585 47.9022
L38.1585 47.3483
" />
<path d="M29.2087 17.7348
L29.3163 17.6515
" />
<path d="M166.0280 17.3602
L166.2728 17.3602
" />
<path d="M36.2887 44.4102
L36.2332 44.4102
" />
<path d="M34.6502 44.4102
L34.1989 44.4102
" />
<path d="M33.4051 64.9875
L33.4161 64.8778
" />
<path d="M28.6333 20.0598
L28.6333 19.8113
" />
<path d="M25.9346 82.5102
L26.0406 82.5102
" />
<path d="M24.4880 128.2693
L24.3843 128.1804
" />
<path d="M28.6333 42.1881
L28.6333 41.9090
" />
<path d="M28.6333 42.5480
L28.6333 42.4765
" />
<path d="M33.4947 64.5208
L33.5411 64.3999
" />
<path d="M25.6788 82.5102
L25.7402 82.5102
" />
<path d="M30.1372 17.3712
L30.2405 17.3642
" />
<path d="M168.6000 17.9307
L168.8161 18.0957
" />
<path d="M33.3960 77.0026
L33.3960 75.8395
" />
<path d="M23.8713 126.7211
L23.8713 126.5894
" />
<path d="M45.5110 128.6102
L38.9494 128.6102
" />
<path d="M23.8713 111.1732
L23.8713 107.4752
" />
<path d="M28.6422 42.8813
L28.6362 42.7802
" />
<path d="M24.5961 82.7729
L24.7109 82.7041
" />
<path d="M28.6333 25.7589
L28.6333 25.5421
" />
<path d="M31.4985 44.4102
L31.2181 44.4102
" />
<path d="M33.3960 79.8492
L33.3960 79.4059
" />
<path d="M36.2332 44.4102
L36.1720 44.4102
" />
<path d="M23.8713 88.7129
L23.8713 87.1622
" />
<path d="M37.2001 63.3232
L37.3188 63.2663
" />
<path d="M29.1764 44.0077
L29.0778 43.9127
" />
<path d="M36.6132 44.4179
L36.5136 44.4126
" />
<path d="M87.7977 128.6102
L75.5632 128.6102
" />
<path d="M23.9252 83.7318
L23.9572 83.6107
" />
<path d="M169.3759 18.6918
L169.5252 18.9164
" />
<path d="M29.7508 44.3295
L29.6294 44.2884
" />
<path d="M37.8307 62.8267
L37.9084 62.7160
" />
<path d="M166.6384 128.6072
L166.4688 128.6099
" />
<path d="M33.4161 64.8778
L33.4337 64.7620
" />
<path d="M25.3065 82.5282
L25.4150 82.5180
" />
<path d="M165.4433 17.3602
L166.0280 17.3602
" />
<path d="M33.5999 64.2817
L33.6705 64.1675
" />
<path d="M38.1585 46.3664
L38.1585 46.2909
" />
<path d="M26.0406 82.5102
L26.1861 82.5102
" />
<path d="M36.7216 44.4280
L36.6132 44.4179
" />
<path d="M166.5691 17.3617
L166.7535 17.3675
" />
<path d="M163.0936 128.6102
L160.4228 128.6102
" />
<path d="M25.1914 82.5446
L25.3065 82.5282
" />
<path d="M23.8732 84.1697
L23.8778 84.0718
" />
<path d="M37.3188 63.2663
L37.4337 63.1975
" />
<path d="M169.9833 25.8382
L169.9833 28.8757
" />
<path d="M37.6470 63.0289
L37.7431 62.9314
" />
<path d="M28.7775 43.4687
L28.7313 43.3478
" />
<path d="M36.3510 63.4602
L36.4264 63.4599
" />
<path d="M35.0514 44.4102
L34.6502 44.4102
" />
<path d="M23.8780 127.0503
L23.8732 126.9522
" />
<path d="M169.9833 89.3567
L169.9833 97.6667
" />
<path d="M37.9753 62.6004
L38.0300 62.4811
" />
<path d="M30.4142 17.3603
L30.4851 17.3602
" />
<path d="M38.1585 58.2849
L38.1585 57.1674
" />
<path d="M23.8713 84.5340
L23.8713 84.4008
" />
<path d="M38.1585 61.6412
L38.1585 61.5785
" />
<path d="M164.2831 17.3602
L165.4433 17.3602
" />
<path d="M26.9725 82.5102
L27.3727 82.5102
" />
<path d="M23.8713 122.4355
L23.8713 120.3878
" />
<path d="M35.8410 44.4102
L35.6437 44.4102
" />
<path d="M28.6333 39.1695
L28.6333 37.9610
" />
<path d="M25.7682 128.6102
L25.6799 128.6102
" />
<path d="M28.7313 43.3478
L28.6961 43.2264
" />
<path d="M124.4486 128.6102
L112.7201 128.6102
" />
<path d="M35.3248 63.4602
L35.3600 63.4602
" />
<path d="M28.7060 18.5062
L28.7445 18.3847
" />
<path d="M30.2092 44.4045
L30.1032 44.3961
" />
<path d="M169.9809 20.7332
L169.9831 20.8987
" />
<path d="M167.4131 17.4417
L167.6534 17.4955
" />
<path d="M29.0778 43.9127
L28.9875 43.8102
" />
<path d="M25.5147 82.5127
L25.6034 82.5106
" />
<path d="M167.9911 128.3666
L167.7482 128.4487
" />
<path d="M169.9833 21.2141
L169.9833 21.6023
" />
<path d="M28.6333 25.3604
L28.6333 25.3597
" />
<path d="M24.2004 127.9784
L24.1225 127.8678
" />
<path d="M31.0229 82.5102
L31.1839 82.5102
" />
<path d="M36.1720 44.4102
L36.0938 44.4102
" />
<path d="M38.1585 55.9216
L38.1585 54.5988
" />
<path d="M169.9833 119.0667
L169.9833 121.5141
" />
<path d="M23.8713 126.5894
L23.8713 126.3233
" />
<path d="M31.1839 82.5102
L31.3016 82.5102
" />
<path d="M25.8567 82.5102
L25.9346 82.5102
" />
<path d="M36.5136 44.4126
L36.4251 44.4106
" />
<path d="M33.3960 65.8962
L33.3960 65.6496
" />
<path d="M31.3016 82.5102
L31.3874 82.5102
" />
<path d="M166.8314 128.5988
L166.6384 128.6072
" />
<path d="M28.8362 43.5870
L28.7775 43.4687
" />
<path d="M38.1585 61.5027
L38.1585 61.3860
" />
<path d="M33.3960 80.6508
L33.3960 80.6025
" />
<path d="M168.1376 17.6654
L168.3730 17.7865
" />
<path d="M169.9822 125.1694
L169.9773 125.3502
" />
<path d="M168.3730 17.7865
L168.6000 17.9307
" />
<path d="M38.1042 45.6299
L38.0720 45.5088
" />
<path d="M23.9256 127.3905
L23.9026 127.2717
" />
<path d="M27.8233 82.5102
L28.3054 82.5102
" />
<path d="M36.8365 44.4443
L36.7216 44.4280
" />
<path d="M34.3940 63.5813
L34.5155 63.5404
" />
<path d="M75.5632 128.6102
L64.1196 128.6102
" />
<path d="M169.9087 126.0030
L169.8576 126.2425
" />
<path d="M28.6706 43.1066
L28.6531 42.9909
" />
<path d="M28.6333 22.8331
L28.6333 22.2971
" />
<path d="M29.7888 17.4304
L29.9091 17.4027
" />
<path d="M36.2053 63.4602
L36.2430 63.4602
" />
<path d="M28.6333 25.4229
L28.6333 25.3720
" />
<path d="M33.3960 67.4349
L33.3960 66.7612
" />
<path d="M109.9089 17.3602
L121.5386 17.3602
" />
<path d="M34.8677 63.4742
L34.9735 63.4658
" />
<path d="M167.8964 17.5691
L168.1376 17.6654
" />
<path d="M31.8531 44.4102
L31.4985 44.4102
" />
<path d="M33.3960 80.5668
L33.3960 80.5417
" />
<path d="M31.4527 82.5102
L31.5088 82.5102
" />
<path d="M169.8576 126.2425
L169.7873 126.4854
" />
<path d="M23.8713 103.7040
L23.8713 100.0038
" />
<path d="M37.9743 45.2682
L37.9073 45.1527
" />
<path d="M31.6376 82.5101
L31.7222 82.5087
" />
<path d="M156.5198 128.6102
L151.1408 128.6102
" />
<path d="M32.8513 82.1091
L32.9500 82.0143
" />
<path d="M33.3327 81.3282
L33.3584 81.2085
" />
<path d="M23.8713 120.3878
L23.8713 117.7730
" />
<path d="M37.4319 44.6718
L37.3170 44.6032
" />
<path d="M29.3935 44.1702
L29.2820 44.0939
" />
<path d="M169.9833 33.0269
L169.9833 38.4722
" />
<path d="M33.3584 81.2085
L33.3760 81.0926
" />
<path d="M25.7957 82.5102
L25.8567 82.5102
" />
<path d="M29.9091 17.4027
L30.0260 17.3835
" />
<path d="M28.6961 43.2264
L28.6706 43.1066
" />
<path d="M169.4367 127.1921
L169.2749 127.4101
" />
<path d="M28.6333 42.6124
L28.6333 42.5480
" />
<path d="M23.8713 93.3927
L23.8713 90.7690
" />
<path d="M36.0523 63.4602
L36.0889 63.4602
" />
<path d="M23.8713 87.1622
L23.8713 86.0429
" />
<path d="M36.0065 63.4602
L36.0523 63.4602
" />
<path d="M24.5978 128.3487
L24.4880 128.2693
" />
<path d="M33.2218 44.4102
L32.7337 44.4102
" />
<path d="M38.1585 46.6660
L38.1585 46.4822
" />
<path d="M29.6294 44.2884
L29.5097 44.2354
" />
<path d="M24.3843 128.1804
L24.2881 128.0830
" />
<path d="M24.2881 128.0830
L24.2004 127.9784
" />
<path d="M28.6333 19.1354
L28.6343 19.0537
" />
<path d="M33.3760 81.0926
L33.3870 80.9830
" />
<path d="M23.8713 123.9789
L23.8713 122.4355
" />
<path d="M29.1078 17.8272
L29.2087 17.7348
" />
<path d="M36.0938 44.4102
L35.9873 44.4102
" />
<path d="M28.6333 24.8554
L28.6333 24.5919
" />
<path d="M28.6333 41.4986
L28.6333 40.9258
" />
<path d="M28.6333 29.3147
L28.6333 28.1860
" />
<path d="M23.8713 84.3292
L23.8715 84.2563
" />
<path d="M28.6333 27.2869
L28.6333 26.6021
" />
<path d="M28.6333 25.0504
L28.6333 24.8554
" />
<path d="M35.0699 63.4617
L35.1545 63.4604
" />
<path d="M38.1046 62.2386
L38.1275 62.1199
" />
<path d="M23.9023 83.8505
L23.9252 83.7318
" />
<path d="M33.3960 80.4538
L33.3960 80.3474
" />
<path d="M25.3082 128.5925
L25.1933 128.5761
" />
<path d="M169.9833 62.0130
L169.9833 71.1764
" />
<path d="M64.1196 128.6102
L53.9464 128.6102
" />
<path d="M33.3930 80.8817
L33.3955 80.7912
" />
<path d="M33.3960 68.3056
L33.3960 67.4349
" />
<path d="M38.1275 62.1199
L38.1427 62.0059
" />
<path d="M33.8421 63.9562
L33.9407 63.8613
" />
<path d="M23.8872 127.1576
L23.8780 127.0503
" />
<path d="M38.1566 46.0683
L38.1518 45.9701
" />
<path d="M33.3960 65.4900
L33.3960 65.3897
" />
<path d="M28.6333 41.9090
L28.6333 41.4986
" />
<path d="M28.6333 25.3281
L28.6333 25.2766
" />
<path d="M33.3960 80.5254
L33.3960 80.5160
" />
<path d="M167.2699 128.5533
L167.0434 128.5819
" />
<path d="M46.9249 17.3602
L54.3490 17.3602
" />
<path d="M168.4628 128.1302
L168.2304 128.2606
" />
<path d="M24.0006 127.6330
L23.9577 127.5117
" />
<path d="M32.6340 82.2713
L32.7456 82.1952
" />
<path d="M25.7402 82.5102
L25.7957 82.5102
" />
<path d="M28.6377 18.9597
L28.6450 18.8557
" />
<path d="M160.4228 128.6102
L156.5198 128.6102
" />
<path d="M31.7222 82.5087
L31.8185 82.5046
" />
<path d="M100.3432 128.6102
L87.7977 128.6102
" />
<path d="M34.1580 63.6991
L34.2743 63.6341
" />
<path d="M33.3960 80.5116
L33.3960 80.5103
" />
<path d="M159.2941 17.3602
L162.3118 17.3602
" />
<path d="M29.8717 44.3601
L29.7508 44.3295
" />
<path d="M169.2749 127.4101
L169.0942 127.6152
" />
<path d="M38.1519 61.8987
L38.1566 61.8007
" />
<path d="M167.5063 128.5099
L167.2699 128.5533
" />
<path d="M167.0434 128.5819
L166.8314 128.5988
" />
<path d="M28.6333 32.0734
L28.6333 30.6300
" />
<path d="M23.8713 114.6538
L23.8713 111.1732
" />
<path d="M30.3905 44.4101
L30.3057 44.4087
" />
<path d="M24.9527 128.5184
L24.8316 128.4740
" />
<path d="M38.1585 59.9583
L38.1585 59.2228
" />
<path d="M30.8074 82.5102
L31.0229 82.5102
" />
<path d="M169.8908 19.8746
L169.9317 20.1098
" />
<path d="M32.7337 44.4102
L32.2712 44.4102
" />
<path d="M166.4688 128.6099
L166.3270 128.6102
" />
<path d="M169.0190 18.2791
L169.2064 18.4786
" />
<path d="M30.6407 44.4102
L30.5757 44.4102
" />
<path d="M28.6333 23.8301
L28.6333 23.3509
" />
<path d="M169.9833 124.8780
L169.9833 125.0146
" />
<path d="M33.3960 79.4059
L33.3960 78.7987
" />
<path d="M23.9572 83.6107
L23.9998 83.4893
" />
<path d="M30.1032 44.3961
L29.9900 44.3818
" />
<path d="M168.8161 18.0957
L169.0190 18.2791
" />
<path d="M34.5155 63.5404
L34.6364 63.5100
" />
<path d="M38.1585 60.5147
L38.1585 59.9583
" />
<path d="M32.2528 17.3602
L34.1342 17.3602
" />
<path d="M24.2866 83.0390
L24.3828 82.9415
" />
<path d="M29.2820 44.0939
L29.1764 44.0077
" />
<path d="M169.9833 45.3074
L169.9833 53.2722
" />
<path d="M33.3960 73.2278
L33.3960 71.8823
" />
<path d="M38.1272 45.7487
L38.1042 45.6299
" />
<path d="M37.7417 44.9374
L37.6455 44.8401
" />
<path d="M26.6411 82.5102
L26.9725 82.5102
" />
<path d="M28.6333 28.1860
L28.6333 27.2869
" />
<path d="M33.3960 65.3897
L33.3960 65.3212
" />
<path d="M169.9833 23.7338
L169.9833 25.8382
" />
<path d="M37.4337 63.1975
L37.5435 63.1180
" />
<path d="M33.3955 80.7912
L33.3960 80.7135
" />
<path d="M23.8871 83.9646
L23.9023 83.8505
" />
<path d="M38.1585 46.4822
L38.1585 46.3664
" />
<path d="M28.6333 26.6021
L28.6333 26.1025
" />
<path d="M167.6534 17.4955
L167.8964 17.5691
" />
<path d="M28.6333 40.1596
L28.6333 39.1695
" />
<path d="M151.1408 128.6102
L144.0423 128.6102
" />
<path d="M26.3825 82.5102
L26.6411 82.5102
" />
<path d="M169.5775 126.9637
L169.4367 127.1921
" />
<path d="M38.1585 57.1674
L38.1585 55.9216
" />
<path d="M97.8339 17.3602
L109.9089 17.3602
" />
<path d="M33.9407 63.8613
L34.0465 63.7752
" />
<path d="M169.9833 21.6023
L169.9833 22.3820
" />
<path d="M31.5088 82.5102
L31.5670 82.5102
" />
</g>
<g style="fill:#000000; fill-opacity:1.0000; stroke:none;">
<circle cx="99.3310" cy="21.3602" r="1.1000" /> 
</g>
<g style="fill:#000000; fill-opacity:1.0000; stroke:none;">
<circle cx="165.3810" cy="21.9702" r="1.1000" /> 
</g>
<g style="fill:#000000; fill-opacity:1.0000; stroke:none;">
<circle cx="32.6210" cy="21.3402" r="1.1000" /> 
</g>
<g style="fill:#000000; fill-opacity:1.0000; stroke:none;">
<circle cx="27.8510" cy="124.5902" r="1.1000" /> 
</g>
<g style="fill:#000000; fill-opacity:1.0000; stroke:none;">
<circle cx="96.9510" cy="124.6102" r="1.1000" /> 
</g>
<g style="fill:#000000; fill-opacity:1.0000; stroke:none;">
<circle cx="165.4010" cy="123.9802" r="1.1000" /> 
</g>
<g style="fill:#000000; fill-opacity:1.0000; stroke:none;">
<circle cx="165.9710" cy="72.9902" r="1.1000" /> 
</g> 
</svg>
